<?xml version="1.0" encoding="UTF-8"?>
<svg id="Layer_1" xmlns="http://www.w3.org/2000/svg" version="1.1" viewBox="0 0 400 400">
  <!-- Generator: Adobe Illustrator 29.1.0, SVG Export Plug-In . SVG Version: 2.1.0 Build 142)  -->
  <defs>
    <style>
      .st0 {
        fill: #3f052a;
      }

      .st1 {
        fill: #ff17b8;
      }
    </style>
  </defs>
  <rect class="st0" x="10" y="10" width="380" height="380" rx="20" ry="20"/>
  <g>
    <polygon class="st1" points="160.9 159.2 151.8 159.2 151.8 150.1 142.7 150.1 142.7 141 133.6 141 133.6 131.9 124.5 131.9 124.5 122.8 115.3 122.8 106.2 122.8 106.2 131.9 97.1 131.9 97.1 141 88 141 88 150.1 78.9 150.1 78.9 159.2 69.8 159.2 69.8 168.3 60.7 168.3 60.7 177.4 69.8 177.4 69.8 186.5 88 186.5 88 177.4 97.1 177.4 97.1 168.3 106.2 168.3 106.2 159.2 115.3 159.2 124.5 159.2 124.5 168.3 133.6 168.3 133.6 177.4 142.7 177.4 142.7 186.5 160.9 186.5 160.9 177.4 170 177.4 170 168.3 160.9 168.3 160.9 159.2"/>
    <polygon class="st1" points="204.6 250.2 195.5 250.2 186.3 250.2 177.2 250.2 177.2 268.4 186.3 268.4 195.5 268.4 204.6 268.4 213.7 268.4 222.8 268.4 222.8 250.2 213.7 250.2 204.6 250.2"/>
    <polygon class="st1" points="330.2 168.3 330.2 159.2 321.1 159.2 321.1 150.1 312 150.1 312 141 302.9 141 302.9 131.9 293.8 131.9 293.8 122.8 284.6 122.8 275.5 122.8 275.5 131.9 266.4 131.9 266.4 141 257.3 141 257.3 150.1 248.2 150.1 248.2 159.2 239.1 159.2 239.1 168.3 230 168.3 230 177.4 239.1 177.4 239.1 186.5 257.3 186.5 257.3 177.4 266.4 177.4 266.4 168.3 275.5 168.3 275.5 159.2 284.6 159.2 293.8 159.2 293.8 168.3 302.9 168.3 302.9 177.4 312 177.4 312 186.5 330.2 186.5 330.2 177.4 339.3 177.4 339.3 168.3 330.2 168.3"/>
  </g>
</svg>